<svg xmlns="http://www.w3.org/2000/svg" xmlns:xlink="http://www.w3.org/1999/xlink" width="21" height="30" viewBox="0 0 21 30"><defs><path id="m3nca" d="M806 474.52v26.96a1.5 1.5 0 0 1-1.47 1.52h-18.06a1.5 1.5 0 0 1-1.47-1.52v-22.81-.02-.01-.06l.03-.07v-.01a.54.54 0 0 1 .06-.11v-.02a.45.45 0 0 1 .05-.04l5.01-5.19a.45.45 0 0 1 .05-.04h.01a.46.46 0 0 1 .11-.06l.01-.01.06-.02h.08l.02-.01h14.04c.8 0 1.47.68 1.47 1.52zm-19.4 3.66h2.88c.3 0 .53-.24.53-.55v-2.97zm18.46-3.66c0-.3-.24-.55-.53-.55h-13.57v3.66a1.5 1.5 0 0 1-1.48 1.52h-3.54v22.33c0 .3.24.55.53.55h18.06c.3 0 .53-.25.53-.55zm-16.05 6.22c0-.27.21-.48.47-.48h12.04c.26 0 .47.21.47.48s-.21.49-.47.49h-12.04a.48.48 0 0 1-.47-.49zm0 2.6c0-.27.21-.5.47-.5h12.04c.26 0 .47.23.47.5 0 .26-.21.48-.47.48h-12.04a.48.48 0 0 1-.47-.49zm0 2.59c0-.27.21-.49.47-.49h12.04c.26 0 .47.22.47.49 0 .26-.21.48-.47.48h-12.04a.48.48 0 0 1-.47-.48zm0 2.59c0-.27.21-.49.47-.49h12.04c.26 0 .47.22.47.49s-.21.48-.47.48h-12.04a.48.48 0 0 1-.47-.48zm0 2.59c0-.27.21-.49.47-.49h12.04c.26 0 .47.22.47.49s-.21.49-.47.49h-12.04a.48.48 0 0 1-.47-.49zm6.96 3.63c0 .27-.21.48-.47.48h-6.02a.48.48 0 0 1-.47-.48c0-.27.21-.49.47-.49h6.02c.26 0 .47.22.47.49zm0 2.59c0 .27-.21.49-.47.49h-6.02a.48.48 0 0 1-.47-.49c0-.27.21-.49.47-.49h6.02c.26 0 .47.22.47.49zm4.51-1.3c0 .41-.32.75-.72.75a.73.73 0 0 1-.72-.75c0-.4.33-.74.72-.74.4 0 .72.33.72.74zm2 0a2.78 2.78 0 0 1-2.72 2.82 2.78 2.78 0 0 1-2.72-2.82 2.78 2.78 0 0 1 2.72-2.81c1.5 0 2.73 1.26 2.73 2.81zm-.93 0c0-1.01-.8-1.84-1.79-1.84-.98 0-1.78.83-1.78 1.84 0 1.02.8 1.85 1.78 1.85.99 0 1.79-.83 1.79-1.85z"/></defs><g><g transform="translate(-785 -473)"><use fill="#fff" xlink:href="#m3nca"/></g></g></svg>