<svg xmlns="http://www.w3.org/2000/svg" xmlns:xlink="http://www.w3.org/1999/xlink" width="29" height="30" viewBox="0 0 29 30"><defs><path id="xrgsa" d="M420 475.64v19.98c0 .49-.4.89-.88.89h-5.43a8.42 8.42 0 0 1-16.38 0h-5.43a.88.88 0 0 1-.88-.89v-19.98c0-.49.4-.88.88-.88h6.02v-.88a.88.88 0 0 1 1.77 0v.88h4.95v-.88a.88.88 0 0 1 1.76 0v.88h5.17v-.88a.88.88 0 0 1 1.77 0v.88h5.8c.48 0 .88.4.88.88zm-27.23.88v3.62h25.46v-3.62h-4.91v.8a.88.88 0 0 1-1.77 0v-.8h-5.17v.8a.88.88 0 0 1-1.76 0v-.8h-4.95v.8a.88.88 0 0 1-1.77 0v-.8zm19.37 18.07a6.65 6.65 0 1 0-13.3.02 6.65 6.65 0 0 0 13.3-.02zm6.1.15V481.9h-25.47v12.83h4.32v-.15a8.42 8.42 0 0 1 16.82 0v.15zm-10.08 1.85a.88.88 0 1 1-1.25 1.25l-2.04-2.03a.89.89 0 0 1-.25-.63v-4.64a.88.88 0 0 1 1.76 0v4.27z"/></defs><g><g transform="translate(-391 -473)"><use fill="#fff" xlink:href="#xrgsa"/></g></g></svg>