<svg xmlns="http://www.w3.org/2000/svg" xmlns:xlink="http://www.w3.org/1999/xlink" width="30" height="30" viewBox="0 0 30 30"><defs><path id="4yk0a" d="M421 582c0 8.27-6.73 15-15 15s-15-6.73-15-15 6.73-15 15-15 15 6.73 15 15zm-1.92 0A13.1 13.1 0 0 0 406 568.92 13.1 13.1 0 0 0 392.92 582 13.1 13.1 0 0 0 406 595.08 13.1 13.1 0 0 0 419.08 582zm-8.05-3.01a5.03 5.03 0 0 1-4.07 4.93v2.82a.96.96 0 1 1-1.92 0v-3.69c0-.53.43-.95.96-.95a3.11 3.11 0 1 0-3.1-3.11.96.96 0 1 1-1.93 0 5.03 5.03 0 0 1 10.06 0zm-4.35 10.48a.97.97 0 0 1 0 1.35.96.96 0 0 1-1.36 0 .96.96 0 0 1 .68-1.64c.25 0 .5.1.68.29z"/></defs><g><g transform="translate(-391 -567)"><use fill="#fff" xlink:href="#4yk0a"/></g></g></svg>