<svg xmlns="http://www.w3.org/2000/svg" xmlns:xlink="http://www.w3.org/1999/xlink" width="17" height="16" viewBox="0 0 17 16"><defs><path id="qsd4a" d="M485.83 1408.72a1.38 1.38 0 1 1 0 2.76 1.38 1.38 0 0 1 0-2.76zm5.6 0a1.38 1.38 0 1 1 0 2.76 1.38 1.38 0 0 1 0-2.76zm4.3-6.5l-1.7 5.06s-.15.75-.86.75h-8.6c-.85 0-.89-.94-.89-.94l-.96-7.18c-.04-.4-.56-.71-.56-.71l-2.26-1.05c-1.23-.65-.67-1.87 0-1.6 2.86 1.35 4.19 2.02 4.27 2.55.09.53.24 1.8.24 1.8v.02a.4.4 0 0 1 .03-.01h10.52c1.27 0 .77 1.32.77 1.32zm-2.47 2.82h-8.34l.17 1.36h7.77zm.82-2.74h-9.5l.18 1.45h8.89z"/></defs><g><g transform="translate(-479 -1396)"><use fill="#23bac1" xlink:href="#qsd4a"/></g></g></svg>