<svg xmlns="http://www.w3.org/2000/svg" xmlns:xlink="http://www.w3.org/1999/xlink" width="30" height="30" viewBox="0 0 30 30"><defs><path id="2reda" d="M794 591v-3c0-.3.2-.5.5-.5s.5.2.5.5v3c0 .3-.2.5-.5.5s-.5-.2-.5-.5zm3 0v-3c0-.3.2-.5.5-.5s.5.2.5.5v3c0 .3-.2.5-.5.5s-.5-.2-.5-.5zm14-7c0 1.89-.36 3.7-1 5.37v.03l-.05.1a14.63 14.63 0 0 1-2.34 4h.04l-.8.85a14.79 14.79 0 0 1-8.35 4.44v.01l-.1.01a15.19 15.19 0 0 1-4.8 0l-.1-.01a14.79 14.79 0 0 1-8.35-4.45l-.8-.85h.04a14.62 14.62 0 0 1-2.34-4l-.05-.1v-.03c-.23-.59-.42-1.19-.57-1.8l-.03-.07A14.98 14.98 0 0 1 796 569c8.25 0 15 6.75 15 15zm-28.73 2.75l3.46-4.32c-.34-.48-.58-.88-.73-1.18-.3.55-.75 1.3-1.55 2.3-.6.7-1.15 1.4-1.35 2.1a8.57 8.57 0 0 0 .17 1.1zm.7.69c.11.03.24.05.38.05l4.27-2.4c-.26-.46-.64-.94-1.02-1.44l-.1-.15-.17-.23zm7.03 2.06h1.27a.54.54 0 0 1 .13-.05c.1-.05.2-.05.35-.35l.04-.1.01-.03.02-.04c.08-.25.06-.5-.04-.76-.12-.3-.35-.62-.68-1.02a1.98 1.98 0 0 1-.05-.12l-.15-.18-.1-.1c-.5-.65-.8-1.15-1.05-1.5-.2.4-.55.9-1.05 1.5-.85 1-1.25 1.7-.9 2.35.15.35.65.4.85.4h.35v-1c0-.3.2-.5.5-.5s.5.2.5.5zm-2 1v3h3v-3zm-.13-4.37l-2.43 1.37h1.47c.26-.54.66-1.02.96-1.37zm-2.13 7.37H787v-3.68a2.05 2.05 0 0 1-.37-1.32H783v.68c.65 1.6 1.58 3.07 2.74 4.32zm11.76 4c0-.85-.65-1.5-1.5-1.5s-1.5.65-1.5 1.5v.4c1 .1 2 .1 3 0zm7.73-3h-18.46a13.98 13.98 0 0 0 6.73 3.27v-.27c0-1.4 1.1-2.5 2.5-2.5s2.5 1.1 2.5 2.5v.27a13.98 13.98 0 0 0 6.73-3.27zm-12.63-4.95a1.7 1.7 0 0 1-.6.73v3.22h8v-3.2c-.32-.16-.5-.43-.65-.7-.56-1.13 0-2.1.65-2.96V585h-8v1.65c.44.58.83 1.2.85 1.9.01.32-.06.66-.25 1zm3.4-12.05l-3.63 6.5h3.13v-1c0-.3.2-.5.5-.5s.5.2.5.5v1h3.13zm0-1c.85 0 1.5-.65 1.5-1.5s-.65-1.5-1.5-1.5-1.5.65-1.5 1.5.65 1.5 1.5 1.5zm8.25 12.6c.06-.12.1-.24.11-.36 0-.17-.03-.35-.11-.54l-.07-.2c-.2-.41-.52-.85-.88-1.25-.05-.05-.1-.1-.1-.15l-.11-.15c-.4-.48-.67-.91-.84-1.2-.2.4-.55.9-1 1.5l-.1.1c-.75.95-1.2 1.6-.85 2.25.1.18.17.3.29.35h.01l.09.03a1 1 0 0 0 .21.02h1.1v-1c0-.3.2-.5.5-.5s.5.2.5.5v1h.4c.2 0 .7-.05.85-.4zm-3.25 1.4v3h3v-3zm8-2h-3.65c.05.35-.05.75-.2 1.05a.64.64 0 0 1-.1.15 1.2 1.2 0 0 1-.05.08v3.72h1.26a14.07 14.07 0 0 0 2.74-4.32zm.9-2.85a6.2 6.2 0 0 0-1.35-2.1c-.8-1-1.3-1.75-1.55-2.3-.3.55-.75 1.3-1.5 2.25l-.1.15c-.65.85-1.3 1.65-1.35 2.4l.05.05c.3.4.7.9.95 1.4h1.45V586c0-.3.2-.5.5-.5s.5.2.5.5v1.5h1c.5 0 .89-.15 1.14-.34a13.82 13.82 0 0 0 .26-1.51zm.1-1.86A14.04 14.04 0 0 0 796 570a14.04 14.04 0 0 0-14 13.73c.2-.28.43-.56.65-.83a8.58 8.58 0 0 0 1.7-2.7c.15-.25.25-.55.65-.6.35 0 .5.3.6.55.2.4.55 1.3 1.7 2.7l.1.15c.5.66 1.01 1.3 1.3 1.98.27-.41.4-.7.45-.88.05-.2.2-.5.55-.5.35 0 .5.3.6.5.11.22.28.64.7 1.26v-.86c0-.18.07-.32.19-.4l3.8-6.8a2.47 2.47 0 0 1-1.49-2.3c0-1.23.85-2.23 2-2.45V571c0-.3.2-.5.5-.5s.5.2.5.5v1.55c1.15.22 2 1.22 2 2.45 0 1.04-.6 1.9-1.49 2.3l3.84 6.83c.1.09.15.22.15.37v.84c.39-.59.54-.98.65-1.19.1-.2.25-.5.6-.5s.5.3.55.5c.06.18.2.49.48.93.28-.69.8-1.35 1.32-2.03l.1-.15c1.1-1.45 1.5-2.3 1.7-2.7.1-.25.25-.55.6-.55s.5.3.6.55c.15.4.55 1.3 1.7 2.7.23.29.48.58.7.89z"/></defs><g><g transform="translate(-781 -569)"><use fill="#fff" xlink:href="#2reda"/></g></g></svg>