<svg xmlns="http://www.w3.org/2000/svg" xmlns:xlink="http://www.w3.org/1999/xlink" width="30" height="30" viewBox="0 0 30 30"><defs><path id="wzvra" d="M405 675.01a3 3 0 1 1-5.98 0 3 3 0 0 1 5.98 0zm-1.99 0a1 1 0 1 0-2 0 1 1 0 0 0 2 0zm9.97 7.98a3 3 0 1 1-5.99 0 3 3 0 0 1 5.99 0zm-2 0a1 1 0 1 0-1.99 0 1 1 0 0 0 2 0zm-.04-7.51l-8.46 8.46a1 1 0 0 1-1.41 0 1 1 0 0 1 0-1.41l8.46-8.46a1 1 0 1 1 1.4 1.4zM421 679a15.02 15.02 0 0 1-22.62 12.92l-6 2.02a1.04 1.04 0 0 1-1.27-1.45l2.51-5.02A15.02 15.02 0 0 1 406 664c8.27 0 15 6.73 15 15zm-2.08 0c0-7.12-5.8-12.92-12.92-12.92a12.93 12.93 0 0 0-10.33 20.66c.24.32.28.74.1 1.1l-1.67 3.32 4.08-1.37a1.05 1.05 0 0 1 .9.1 12.93 12.93 0 0 0 19.85-10.9z"/></defs><g><g transform="translate(-391 -664)"><use fill="#fff" xlink:href="#wzvra"/></g></g></svg>