<svg xmlns="http://www.w3.org/2000/svg" xmlns:xlink="http://www.w3.org/1999/xlink" width="30" height="19" viewBox="0 0 30 19"><defs><path id="ubsha" d="M811 681.5v5.02c0 .26-.21.47-.47.47h-1.54v.03a2.98 2.98 0 0 1-5.94 0V687h-10.59v.03a2.98 2.98 0 0 1-5.95 0V687h-2.54a.97.97 0 0 1-.97-.97v-1.04h-1.53a.47.47 0 0 1 0-.94h4.5a.47.47 0 0 1 0 .94h-2.03v1.04l.03.03h2.7a2.98 2.98 0 0 1 5.63 0h9.74v-3.54a.47.47 0 1 1 .94 0v3.54h.23a2.98 2.98 0 0 1 5.62 0h1.23v-2.07h-.53c-.81 0-1.47-.66-1.47-1.47v-1c0-.27.2-.48.47-.48h1.46a1.54 1.54 0 0 0-1.46-1.06h-5.55v.53a.47.47 0 1 1-.94 0v-8.53a.03.03 0 0 0-.03-.03h-18.04a.03.03 0 0 0-.03.03v8.53a.47.47 0 1 1-.94 0v-8.53c0-.53.44-.97.97-.97h18.04c.54 0 .97.44.97.97v1.04h3.54c1.09 0 1.97.88 1.97 1.97v.5c0 .23-.15.42-.37.46l.78 3.11a2.48 2.48 0 0 1 2.1 2.45zm-8.02-6.49h4.58v-.03c0-.57-.47-1.03-1.04-1.03h-3.54zm0 4.02h4.94l-.76-3.08h-4.18zm-11.46 8a2.04 2.04 0 1 0-4.08 0 2.04 2.04 0 0 0 4.08 0zm16.54 0a2.04 2.04 0 1 0-4.08 0 2.04 2.04 0 0 0 4.08 0zm2-4v-1.06H809v.54c0 .29.23.53.53.53zm-19.6 4a.97.97 0 1 1-1.95-.01.97.97 0 0 1 1.95 0zm16.53 0a.97.97 0 1 1-1.94-.01.97.97 0 0 1 1.94 0zm-6.01-2.52c0 .26-.21.47-.47.47h-7.02a.47.47 0 0 1 0-.94h7.02c.26 0 .47.21.47.47zm-12.03-2c0 .26-.2.47-.47.47h-6a.47.47 0 0 1 0-.94h6c.26 0 .47.2.47.47zm8.38-6.2l-4.5 4.52a.47.47 0 0 1-.67 0l-2.5-2.5a.47.47 0 0 1 .66-.67l2.17 2.17 4.18-4.18a.47.47 0 1 1 .66.67z"/></defs><g><g transform="translate(-781 -671)"><use fill="#fff" xlink:href="#ubsha"/></g></g></svg>